<svg xmlns="http://www.w3.org/2000/svg" xmlns:xlink="http://www.w3.org/1999/xlink" viewBox="0 0 410 340"><defs><style>.cls-1,.cls-9{fill:none;}.cls-2{isolation:isolate;}.cls-3{fill:url(#linear-gradient);}.cls-4{clip-path:url(#clip-path);}.cls-5,.cls-7{fill:#00b8d4;}.cls-5,.cls-8,.cls-9{stroke:#0031e2;stroke-miterlimit:10;}.cls-12,.cls-6{opacity:0.2;}.cls-6{mix-blend-mode:multiply;}.cls-8{fill:#fff;}.cls-10{opacity:0.1;}.cls-11,.cls-12{fill:#0031e2;}</style><linearGradient id="linear-gradient" x1="250.82" y1="131.6" x2="147.85" y2="309.95" gradientUnits="userSpaceOnUse"><stop offset="0" stop-color="#00b8d4" stop-opacity="0.02"/><stop offset="1" stop-color="#00b8d4" stop-opacity="0.15"/></linearGradient><clipPath id="clip-path"><path id="SVGID" class="cls-1" d="M97.3,83.47l20.94-4.93A70.85,70.85,0,0,1,191.13,105l27.21-44.18c11.42,15.22,3,18.5,21.88,21l60.37-7c28.68,3.81,66.66,124.76,73.81,152.79l3.39,13.31c8.76,34.36-9.23,46.6-42.1,59.88l-58.85,23.77a70.84,70.84,0,0,1-80-19.18L168,272.19c-15-17.27-37.47-2.92-60.26-.71h0c-52.18,5-91.57-46.36-73.13-95.42l.85-2.27a69.32,69.32,0,0,0,2.83-9.48L44.4,137A70.83,70.83,0,0,1,97.3,83.47Z"/></clipPath></defs><title>Born in the Cloud</title><g class="cls-2"><g id="Layer_1" data-name="Layer 1"><path class="cls-3" d="M97.3,83.47l20.94-4.93A70.85,70.85,0,0,1,191.13,105l26.66,35.55a70.78,70.78,0,0,0,47.33,27.71l50,6.64a70.85,70.85,0,0,1,59.3,52.71l3.39,13.31c8.76,34.36-9.23,46.6-42.1,59.88l-58.85,23.77a70.84,70.84,0,0,1-80-19.18L168,272.19c-15-17.27-37.47-2.92-60.26-.71h0c-52.18,5-91.57-46.36-73.13-95.42l.85-2.27a69.32,69.32,0,0,0,2.83-9.48L44.4,137A70.83,70.83,0,0,1,97.3,83.47Z"/><g class="cls-4"><path class="cls-5" d="M167,334.25c29.77,8.54,67.3,27.4,100.51,26.25C277,330.75,246,250.28,246,250.28s40.92-38.88,47.75-50.75c10.65-18.52-.17-72.48-.17-72.48l-12.44-1s6.61,44.54-4.92,61.76c-6.31,9.44-22.63,27.09-33.36,30.82-17.49,6.08-55.9,3.62-74.06,0-9.9-2-30.31-8.92-36.76-16.68-11.93-14.36-2-57.87-2-57.87l-19.4-6.18s-13.8,54,0,73c7.51,10.29,50.76,34.52,50.76,34.52S162.24,308.47,167,334.25Z"/><g class="cls-6"><path class="cls-7" d="M121.31,144s-10,43.51,2,57.87c6.45,7.76,26.86,14.71,36.76,16.68,11.11,2.22,29.8,4,46.64,3.65a235.3,235.3,0,0,1-37.89-3.65c-9.9-2-30.31-8.92-36.76-16.68-11.93-14.36-2-57.87-2-57.87l-19.4-6.18s-.24.94-.62,2.59Z"/><path class="cls-7" d="M293.73,199.53c10.65-18.52-.5-72.07-.5-72.07l-8.46-.73s10.86,54.28.21,72.8c-6.83,11.87-47.75,50.75-47.75,50.75s30.89,80.22,21.56,110.08c2.93.18,5.83.24,8.71.14C277,330.75,246,250.28,246,250.28S286.9,211.4,293.73,199.53Z"/></g><path class="cls-5" d="M188.37,228.15a14,14,0,0,0,10.08,6.92,11.71,11.71,0,0,0,1.67.11h0c6.82,0,12.84-5.41,14.82-12.94.22-.83-29.18-2.88-29-1.27A18.46,18.46,0,0,0,188.37,228.15Z"/></g><path class="cls-8" d="M291.4,108.17l1.46-2.1a1.25,1.25,0,0,0,0-1.46l-6.78-8.91L290,92.86l9.08,11.48"/><path class="cls-8" d="M118.42,121.49l2-8.88L125,106l10.23,4.34-7.56,5.42,4,8.71-1.54,5.66a9.53,9.53,0,0,1-5.06,6.07l-.67.32a1.58,1.58,0,0,0-.88,1.36l-.13,4.07-6.27-2.05-5.61-10.35-6.64-10.86,6.49-7.81,7,10.66"/><path class="cls-9" d="M120.05,122.5a4.18,4.18,0,0,0,.58,3.94"/><path class="cls-8" d="M110.14,118l-3.88-6a1.82,1.82,0,0,1-.24-1.42l2.18-9.16a2.41,2.41,0,0,0-1.4-2.78h0a2.42,2.42,0,0,0-3.18,1.29L99.42,111l5.76,9.48"/><path class="cls-8" d="M292.61,126.88l-.15-1.47a2.64,2.64,0,0,1,1.52-2.72h0l2.12-.86a4.21,4.21,0,0,0,2-1.73l3.6-6a4.12,4.12,0,0,0,.6-2.16v-5.65a2.57,2.57,0,0,0-.61-1.68l-3.48-4.13a1.94,1.94,0,0,0-2.62-.34h0a2,2,0,0,0-.56,2.6l2.68,4.46-1.1,4.59"/><path class="cls-8" d="M294.12,86.16A47.53,47.53,0,0,0,261.69,41.1c0-.25,0-.51,0-.76a22.31,22.31,0,0,0-37-16.79A71,71,0,0,0,126.78,38.4a43.78,43.78,0,0,0,0,85.84,71,71,0,0,0,88.49,20.56A20.71,20.71,0,0,0,253,133.23,47.5,47.5,0,0,0,294.12,86.16Z"/><g class="cls-10"><path class="cls-11" d="M273.91,47.3a47.49,47.49,0,0,1-33.25,73.33A20.71,20.71,0,0,1,203,132.2a71,71,0,0,1-88.49-20.56,43.67,43.67,0,0,1-16-6.71,43.79,43.79,0,0,0,28.23,19.31,71,71,0,0,0,88.49,20.56A20.71,20.71,0,0,0,253,133.23a47.48,47.48,0,0,0,21-85.93Z"/></g><path class="cls-11" d="M186.15,71v2.55A5.66,5.66,0,0,0,184,71.34a5.88,5.88,0,0,0-3.12-.84,6.2,6.2,0,0,0-2.87.68A7.13,7.13,0,0,0,175.76,73a8.88,8.88,0,0,0-1.51,2.79,10.75,10.75,0,0,0-.54,3.45,10.56,10.56,0,0,0,.56,3.49,8.58,8.58,0,0,0,1.58,2.79,7.35,7.35,0,0,0,2.44,1.85,7.27,7.27,0,0,0,3.12.66,5.3,5.3,0,0,0,2.84-.72,5.57,5.57,0,0,0,1.91-2.12v2.52h5V71Zm0,10.32a5.41,5.41,0,0,1-1.45,1.72,3.22,3.22,0,0,1-2,.63,3.52,3.52,0,0,1-1.55-.34,3.72,3.72,0,0,1-1.23-.92,4.18,4.18,0,0,1-.8-1.36,4.84,4.84,0,0,1-.3-1.73,5.45,5.45,0,0,1,.26-1.67,4.72,4.72,0,0,1,.76-1.44,4,4,0,0,1,1.17-1,2.92,2.92,0,0,1,1.47-.37,3.35,3.35,0,0,1,2.17.81,4.72,4.72,0,0,1,1.49,2.16ZM211,83.21a3.23,3.23,0,0,1-3.08.15,3.49,3.49,0,0,1-1.15-.91A4.16,4.16,0,0,1,206,81a5.86,5.86,0,0,1-.28-1.83,4.74,4.74,0,0,1,1-3.21,3.24,3.24,0,0,1,2.56-1.21,3,3,0,0,1,2.79,1.63l4.78-1.53A7.8,7.8,0,0,0,214,71.63a8.39,8.39,0,0,0-4.69-1.25,8.94,8.94,0,0,0-3.67.72A8,8,0,0,0,203,73a8.36,8.36,0,0,0-1.68,2.82,10,10,0,0,0,0,6.71,8.13,8.13,0,0,0,4.43,4.77,9.48,9.48,0,0,0,8.37-.53,7.49,7.49,0,0,0,2.83-3.25L212.14,82A2.91,2.91,0,0,1,211,83.21M193.67,65.33V88.06h5V65.33Zm29.64,4.48V65.29h-5v4.51Zm37.91,6a8.12,8.12,0,0,0-1.68-2.78,7.86,7.86,0,0,0-2.69-1.92,9.76,9.76,0,0,0-7.31,0,7.87,7.87,0,0,0-2.71,1.93,8.47,8.47,0,0,0-1.69,2.86,10.38,10.38,0,0,0-.58,3.46,9.24,9.24,0,0,0,.59,3.27,8,8,0,0,0,4.42,4.64,9.19,9.19,0,0,0,3.64.69A8.87,8.87,0,0,0,258,86.75a7.86,7.86,0,0,0,2.94-3.26l-4.17-1.22a2.8,2.8,0,0,1-1.33,1.48,4.22,4.22,0,0,1-2.07.55,3.67,3.67,0,0,1-2.41-.89,3.54,3.54,0,0,1-1.18-2.59h11.89a6.92,6.92,0,0,0,.09-.76c0-.29,0-.59,0-.89a9.93,9.93,0,0,0-.56-3.32m-11.54,1.78a4,4,0,0,1,1.09-2.53,3.15,3.15,0,0,1,2.37-.95,3.23,3.23,0,0,1,2.36.93,4,4,0,0,1,1.1,2.55Zm-31.35-5.95V88h5V71.68Zm19.56-6.38v8.93a5.84,5.84,0,0,0-2.16-2.14,6,6,0,0,0-3.12-.8,6.5,6.5,0,0,0-2.88.64,7.06,7.06,0,0,0-2.29,1.77,8.22,8.22,0,0,0-1.5,2.66,10.07,10.07,0,0,0-.53,3.28A9.39,9.39,0,0,0,226,83a8.31,8.31,0,0,0,1.61,2.66,7.2,7.2,0,0,0,2.45,1.77,7.7,7.7,0,0,0,3.1.62,5.13,5.13,0,0,0,4.77-2.64v2.34h5V65.29Zm-1.4,18a3.65,3.65,0,0,1-2,.6,3.85,3.85,0,0,1-1.56-.31,3.46,3.46,0,0,1-1.23-.86,3.76,3.76,0,0,1-.81-1.32,4.49,4.49,0,0,1-.3-1.66,5.17,5.17,0,0,1,.26-1.61,4.27,4.27,0,0,1,.77-1.37,4,4,0,0,1,1.15-.93,3,3,0,0,1,1.47-.36,3.61,3.61,0,0,1,2.16.77,4.49,4.49,0,0,1,1.55,2v3.37a3.86,3.86,0,0,1-1.44,1.65"/><polygon class="cls-11" points="137.05 80.63 142.34 85.89 147.63 80.63 142.34 75.36 137.05 80.63"/><path class="cls-11" d="M142.39,57.84,116.88,84.52l1.94,1.84c.43.41,10.64,10,23.57,10s23.14-9.57,23.56-10l1.94-1.84Zm0,33.12c-7.64,0-14.42-4.29-17.69-6.76l17.69-18.5,17.68,18.5C156.8,86.67,150,91,142.39,91Z"/><path class="cls-8" d="M192,208.26l-1.08,8.18c-.9,6.86,2.76,13,8.18,13.71h0c5.42.71,10.54-4.27,11.44-11.13l1.08-8.19c1.13-8.61-4.84-15.5-11.62-13.4h0C195.87,198.7,192.67,203,192,208.26Z"/><path class="cls-8" d="M227.16,203c-12.74,9.4-38.26,13.75-46.79,2.19s3.18-34.66,15.92-44.05,21.69-1.53,30.22,10S239.9,193.61,227.16,203Z"/><path class="cls-8" d="M202.79,133.24c10.09-8.82,9.3,14,12.63,18.56,7.5,10.16,31.9,15.24,22.42,43.48-1.61,4.79-6.28,9.23-11,11-3.08,1.13-12.37,3.1-12.37,3.1L215,205l6.33-3.69a4.43,4.43,0,0,0,2.17-3.33h0a4.44,4.44,0,0,0-5-4.89l-.59.08-2.27-3.66,6.23-9.89a3,3,0,0,0-1.56-4.37s-6.28-2.37-8.47-2.84C187.06,167.13,185,148.81,202.79,133.24Z"/><path class="cls-12" d="M200.46,168.24l-.56-1.52a33.31,33.31,0,0,1,.7-24.58l4.51-10.47-1.61,7.82a44.4,44.4,0,0,0,3.58,28.38l1.86,3.8"/><path class="cls-8" d="M106.91,119.57l-4.16-5.9a3,3,0,0,1-.5-2.26l1.31-7a2,2,0,0,0-.83-2h0a2,2,0,0,0-3,.86l-3.06,7.27a3.08,3.08,0,0,0,.07,2.52l4.19,8.71a13.17,13.17,0,0,0,2.92,3.94l9.71,8.94a5.79,5.79,0,0,1,1.85,4.62v0l5.1,1.61"/><path class="cls-8" d="M283.64,126.22l-.54-2.12L280,122.61a5.39,5.39,0,0,1-2.23-2L274,114.67l-5-4.13-.81,0a2.74,2.74,0,0,1-2.5-1.93h0a2.74,2.74,0,0,1,2.53-3.55l.9,0a4,4,0,0,1,2.34.66l3.17,2.06a4.85,4.85,0,0,1,.81.69l1.4,1.55a3.78,3.78,0,0,0,2.86,1.24l3.41,0a6.09,6.09,0,0,1,3.93,1.35l3.31,2.66"/></g></g></svg>